<svg width="83" height="73" viewBox="0 0 83 73" fill="none" xmlns="http://www.w3.org/2000/svg">
<path d="M65.2334 48.1521C68.0024 47.8507 69.9133 44.5404 69.5016 40.7582C69.09 36.976 66.5116 34.1542 63.7427 34.4556C60.9738 34.7569 59.0628 38.0673 59.4745 41.8495C59.8862 45.6317 62.4645 48.4535 65.2334 48.1521Z" fill="#EB6D3B"/>
<path d="M30.3077 13.8884C33.1775 13.7167 35.3221 10.5382 35.0978 6.7888C34.8736 3.03945 32.3654 0.139144 29.4956 0.310779C26.6259 0.482414 24.4812 3.661 24.7055 7.41035C24.9297 11.1597 27.4379 14.06 30.3077 13.8884Z" fill="#EB6D3B"/>
<path d="M46.8894 11.8459C47.318 8.28739 45.3517 5.12387 42.4975 4.78003C39.6432 4.43618 36.9819 7.04222 36.5532 10.6008C36.1245 14.1593 38.0908 17.3228 40.9451 17.6667C43.7993 18.0105 46.4607 15.4045 46.8894 11.8459Z" fill="#EB6D3B"/>
<path d="M19.206 16.4247C22.0517 15.7553 23.6142 12.0483 22.6959 8.14492C21.7776 4.24159 18.7263 1.62003 15.8806 2.28951C13.0348 2.95899 11.4723 6.66599 12.3906 10.5693C13.3089 14.4727 16.3602 17.0942 19.206 16.4247Z" fill="#EB6D3B"/>
<path d="M59.7635 54.3548C69.9786 48.6422 81.6675 56.7007 80.1328 62.8595C78.4833 69.4577 72.2028 65.9017 67.5043 67.6188C64.6175 68.6735 60.2097 74.5956 55.1326 70.9788C50.7045 67.8216 53.0977 58.0798 59.7635 54.3548V54.3548Z" fill="#EB6D3B"/>
<path d="M24.9471 17.882C32.2484 15.9688 42.4297 21.6409 41.2669 28.1106C40.1717 34.2018 31.7076 31.5449 28.2732 32.8227C23.7978 34.4858 18.1866 39.3871 14.9957 34.4858C11.3991 28.9489 18.5382 19.5654 24.9471 17.882Z" fill="#EB6D3B"/>
<path d="M11.2405 24.0569C13.7335 22.6176 14.2486 18.8427 12.3911 15.6255C10.5336 12.4082 7.00682 10.967 4.51387 12.4063C2.02093 13.8457 1.50582 17.6206 3.36334 20.8378C5.22085 24.055 8.7476 25.4963 11.2405 24.0569Z" fill="#EB6D3B"/>
<path d="M56.0537 52.2075C58.6437 50.7122 59.2011 46.829 57.2988 43.5342C55.3964 40.2393 51.7547 38.7806 49.1648 40.2759C46.5748 41.7713 46.0174 45.6545 47.9197 48.9493C49.8221 52.2441 53.4638 53.7029 56.0537 52.2075Z" fill="#EB6D3B"/>
<path d="M48.582 61.9612C50.8537 60.3496 50.9108 56.5276 48.7094 53.4246C46.508 50.3215 42.8819 49.1124 40.6102 50.724C38.3384 52.3356 38.2814 56.1576 40.4828 59.2607C42.6841 62.3638 46.3103 63.5728 48.582 61.9612Z" fill="#EB6D3B"/>
<path d="M77.3275 49.8947C80.0963 49.7241 82.1649 46.7279 81.9476 43.2026C81.7304 39.6772 79.3097 36.9576 76.5408 37.1282C73.772 37.2988 71.7034 40.295 71.9207 43.8204C72.1379 47.3458 74.5586 50.0653 77.3275 49.8947Z" fill="#EB6D3B"/>
</svg>
