<svg width="481" height="95" viewBox="0 0 481 95" fill="none" xmlns="http://www.w3.org/2000/svg">
<path d="M17.5419 71C16.8379 71 16.2619 70.776 15.8139 70.328C15.3659 69.88 15.1419 69.304 15.1419 68.6V6.2C15.1419 5.496 15.3659 4.92 15.8139 4.472C16.2619 4.024 16.8379 3.8 17.5419 3.8H44.4219C49.7339 3.8 54.3419 4.632 58.2459 6.296C62.2139 7.896 65.2859 10.328 67.4619 13.592C69.7019 16.856 70.8219 20.984 70.8219 25.976C70.8219 30.904 69.7019 34.968 67.4619 38.168C65.2859 41.368 62.2139 43.736 58.2459 45.272C54.3419 46.808 49.7339 47.576 44.4219 47.576H32.9979V68.6C32.9979 69.304 32.7419 69.88 32.2299 70.328C31.7819 70.776 31.2059 71 30.5019 71H17.5419ZM32.7099 34.328H43.9419C46.6939 34.328 48.8699 33.624 50.4699 32.216C52.1339 30.808 52.9659 28.664 52.9659 25.784C52.9659 23.352 52.2619 21.304 50.8539 19.64C49.4459 17.976 47.1419 17.144 43.9419 17.144H32.7099V34.328ZM101.438 71.96C93.8864 71.96 87.8704 69.912 83.3904 65.816C78.9104 61.72 76.5744 55.64 76.3824 47.576C76.3824 47.128 76.3824 46.552 76.3824 45.848C76.3824 45.144 76.3824 44.6 76.3824 44.216C76.5744 39.16 77.6944 34.84 79.7424 31.256C81.8544 27.608 84.7344 24.856 88.3824 23C92.0944 21.08 96.4144 20.12 101.342 20.12C106.974 20.12 111.614 21.24 115.262 23.48C118.974 25.72 121.758 28.76 123.614 32.6C125.47 36.44 126.398 40.824 126.398 45.752V48.056C126.398 48.76 126.142 49.336 125.63 49.784C125.182 50.232 124.638 50.456 123.998 50.456H93.2784C93.2784 50.52 93.2784 50.616 93.2784 50.744C93.2784 50.872 93.2784 51 93.2784 51.128C93.3424 52.984 93.6624 54.68 94.2384 56.216C94.8144 57.752 95.7104 58.968 96.9264 59.864C98.1424 60.76 99.6144 61.208 101.342 61.208C102.622 61.208 103.678 61.016 104.51 60.632C105.406 60.184 106.142 59.704 106.718 59.192C107.294 58.616 107.742 58.136 108.062 57.752C108.638 57.112 109.086 56.728 109.406 56.6C109.79 56.408 110.366 56.312 111.134 56.312H123.038C123.678 56.312 124.19 56.504 124.574 56.888C125.022 57.208 125.214 57.688 125.15 58.328C125.086 59.416 124.542 60.728 123.518 62.264C122.494 63.8 120.99 65.336 119.006 66.872C117.086 68.344 114.654 69.56 111.71 70.52C108.766 71.48 105.342 71.96 101.438 71.96ZM93.2784 40.952H109.502V40.76C109.502 38.712 109.182 36.92 108.542 35.384C107.966 33.848 107.038 32.664 105.758 31.832C104.542 31 103.07 30.584 101.342 30.584C99.6144 30.584 98.1424 31 96.9264 31.832C95.7744 32.664 94.8784 33.848 94.2384 35.384C93.5984 36.92 93.2784 38.712 93.2784 40.76V40.952ZM160.841 71C156.745 71 153.193 70.36 150.185 69.08C147.241 67.736 144.969 65.688 143.369 62.936C141.769 60.12 140.969 56.504 140.969 52.088V33.656H133.481C132.777 33.656 132.169 33.432 131.657 32.984C131.209 32.536 130.985 31.96 130.985 31.256V23.48C130.985 22.776 131.209 22.2 131.657 21.752C132.169 21.304 132.777 21.08 133.481 21.08H140.969V5.23999C140.969 4.536 141.193 3.96 141.641 3.512C142.153 3.064 142.729 2.84 143.369 2.84H154.505C155.209 2.84 155.785 3.064 156.233 3.512C156.681 3.96 156.905 4.536 156.905 5.23999V21.08H168.905C169.609 21.08 170.185 21.304 170.633 21.752C171.081 22.2 171.305 22.776 171.305 23.48V31.256C171.305 31.96 171.081 32.536 170.633 32.984C170.185 33.432 169.609 33.656 168.905 33.656H156.905V50.744C156.905 52.92 157.321 54.648 158.153 55.928C158.985 57.208 160.393 57.848 162.377 57.848H169.769C170.473 57.848 171.049 58.072 171.497 58.52C171.945 58.968 172.169 59.544 172.169 60.248V68.6C172.169 69.304 171.945 69.88 171.497 70.328C171.049 70.776 170.473 71 169.769 71H160.841ZM183.573 71C182.869 71 182.293 70.776 181.845 70.328C181.397 69.88 181.173 69.304 181.173 68.6V6.2C181.173 5.496 181.397 4.92 181.845 4.472C182.293 4.024 182.869 3.8 183.573 3.8H212.853C218.357 3.8 222.869 4.568 226.389 6.10399C229.909 7.64 232.501 9.848 234.165 12.728C235.893 15.544 236.757 18.904 236.757 22.808C236.757 25.112 236.309 27.16 235.413 28.952C234.581 30.68 233.525 32.12 232.245 33.272C231.029 34.424 229.877 35.256 228.789 35.768C231.221 36.92 233.365 38.808 235.221 41.432C237.141 44.056 238.101 47.128 238.101 50.648C238.101 54.872 237.141 58.52 235.221 61.592C233.365 64.6 230.613 66.936 226.965 68.6C223.381 70.2 218.965 71 213.717 71H183.573ZM198.357 58.52H211.797C214.549 58.52 216.629 57.72 218.037 56.12C219.445 54.52 220.149 52.696 220.149 50.648C220.149 48.408 219.413 46.52 217.941 44.984C216.533 43.448 214.485 42.68 211.797 42.68H198.357V58.52ZM198.357 30.488H210.933C213.557 30.488 215.509 29.816 216.789 28.472C218.133 27.128 218.805 25.4 218.805 23.288C218.805 21.24 218.133 19.576 216.789 18.296C215.509 16.952 213.557 16.28 210.933 16.28H198.357V30.488ZM271.327 71.96C265.951 71.96 261.407 71.096 257.695 69.368C254.047 67.64 251.231 65.176 249.247 61.976C247.327 58.712 246.239 54.84 245.983 50.36C245.919 49.08 245.887 47.64 245.887 46.04C245.887 44.376 245.919 42.936 245.983 41.72C246.239 37.176 247.391 33.304 249.439 30.104C251.487 26.904 254.335 24.44 257.983 22.712C261.695 20.984 266.143 20.12 271.327 20.12C276.575 20.12 281.023 20.984 284.671 22.712C288.383 24.44 291.263 26.904 293.311 30.104C295.359 33.304 296.511 37.176 296.767 41.72C296.831 42.936 296.863 44.376 296.863 46.04C296.863 47.64 296.831 49.08 296.767 50.36C296.511 54.84 295.391 58.712 293.407 61.976C291.487 65.176 288.671 67.64 284.959 69.368C281.311 71.096 276.767 71.96 271.327 71.96ZM271.327 60.248C274.207 60.248 276.287 59.384 277.567 57.656C278.911 55.928 279.679 53.336 279.871 49.88C279.935 48.92 279.967 47.64 279.967 46.04C279.967 44.44 279.935 43.16 279.871 42.2C279.679 38.808 278.911 36.248 277.567 34.52C276.287 32.728 274.207 31.832 271.327 31.832C268.511 31.832 266.431 32.728 265.087 34.52C263.743 36.248 263.007 38.808 262.879 42.2C262.815 43.16 262.783 44.44 262.783 46.04C262.783 47.64 262.815 48.92 262.879 49.88C263.007 53.336 263.743 55.928 265.087 57.656C266.431 59.384 268.511 60.248 271.327 60.248ZM329.921 71.96C324.545 71.96 320.001 71.096 316.289 69.368C312.641 67.64 309.825 65.176 307.841 61.976C305.921 58.712 304.833 54.84 304.577 50.36C304.513 49.08 304.481 47.64 304.481 46.04C304.481 44.376 304.513 42.936 304.577 41.72C304.833 37.176 305.985 33.304 308.033 30.104C310.081 26.904 312.929 24.44 316.577 22.712C320.289 20.984 324.737 20.12 329.921 20.12C335.169 20.12 339.617 20.984 343.265 22.712C346.977 24.44 349.857 26.904 351.905 30.104C353.953 33.304 355.105 37.176 355.361 41.72C355.425 42.936 355.457 44.376 355.457 46.04C355.457 47.64 355.425 49.08 355.361 50.36C355.105 54.84 353.985 58.712 352.001 61.976C350.081 65.176 347.265 67.64 343.553 69.368C339.905 71.096 335.361 71.96 329.921 71.96ZM329.921 60.248C332.801 60.248 334.881 59.384 336.161 57.656C337.505 55.928 338.273 53.336 338.465 49.88C338.529 48.92 338.561 47.64 338.561 46.04C338.561 44.44 338.529 43.16 338.465 42.2C338.273 38.808 337.505 36.248 336.161 34.52C334.881 32.728 332.801 31.832 329.921 31.832C327.105 31.832 325.025 32.728 323.681 34.52C322.337 36.248 321.601 38.808 321.473 42.2C321.409 43.16 321.377 44.44 321.377 46.04C321.377 47.64 321.409 48.92 321.473 49.88C321.601 53.336 322.337 55.928 323.681 57.656C325.025 59.384 327.105 60.248 329.921 60.248ZM367.298 71C366.594 71 366.018 70.776 365.57 70.328C365.122 69.88 364.898 69.304 364.898 68.6V5.23999C364.898 4.536 365.122 3.96 365.57 3.512C366.018 3.064 366.594 2.84 367.298 2.84H378.434C379.074 2.84 379.618 3.064 380.066 3.512C380.578 3.96 380.834 4.536 380.834 5.23999V37.4L394.178 22.712C394.562 22.264 394.978 21.88 395.426 21.56C395.874 21.24 396.514 21.08 397.346 21.08H410.21C410.786 21.08 411.266 21.304 411.65 21.752C412.098 22.136 412.322 22.616 412.322 23.192C412.322 23.448 412.258 23.736 412.13 24.056C412.002 24.376 411.81 24.632 411.554 24.824L394.274 43.448L413.954 67.352C414.466 67.864 414.722 68.376 414.722 68.888C414.722 69.464 414.498 69.976 414.05 70.424C413.666 70.808 413.154 71 412.514 71H399.362C398.402 71 397.698 70.84 397.25 70.52C396.802 70.136 396.386 69.752 396.002 69.368L380.834 51.128V68.6C380.834 69.304 380.578 69.88 380.066 70.328C379.618 70.776 379.074 71 378.434 71H367.298ZM430.273 89.24C429.697 89.24 429.217 89.048 428.833 88.664C428.449 88.28 428.257 87.8 428.257 87.224C428.257 87.096 428.257 86.904 428.257 86.648C428.321 86.456 428.417 86.232 428.545 85.976L436.033 67.928L417.601 24.344C417.409 23.896 417.313 23.512 417.313 23.192C417.441 22.616 417.697 22.136 418.081 21.752C418.465 21.304 418.945 21.08 419.521 21.08H430.465C431.297 21.08 431.905 21.304 432.289 21.752C432.737 22.136 433.025 22.584 433.153 23.096L444.193 51.032L455.425 23.096C455.681 22.584 456.001 22.136 456.385 21.752C456.833 21.304 457.473 21.08 458.305 21.08H469.057C469.633 21.08 470.113 21.304 470.497 21.752C470.945 22.136 471.169 22.584 471.169 23.096C471.169 23.416 471.073 23.832 470.881 24.344L443.713 87.224C443.521 87.736 443.201 88.184 442.753 88.568C442.305 89.016 441.665 89.24 440.833 89.24H430.273Z" fill="#EB6D3B"/>
<path d="M339.026 19.4263C334.387 16.9358 329.104 15.5194 323.494 15.5194C315.255 15.5194 307.718 18.5663 301.899 23.6061C301.802 23.527 301.702 23.4528 301.603 23.3747C301.372 23.1915 301.143 23.0073 300.907 22.8309C300.696 22.6718 300.48 22.5195 300.264 22.3652C300.026 22.1945 299.788 22.0229 299.545 21.858C299.325 21.7095 299.102 21.5668 298.879 21.4232C298.633 21.2641 298.387 21.105 298.137 20.9526C297.908 20.8138 297.677 20.6817 297.445 20.5477C297.193 20.4011 296.94 20.2555 296.683 20.1157C296.447 19.9875 296.209 19.866 295.97 19.7435C295.711 19.6105 295.45 19.4774 295.187 19.3511C294.945 19.2345 294.698 19.1236 294.453 19.0127C294.187 18.8922 293.92 18.7736 293.65 18.6598C293.401 18.5547 293.149 18.4554 292.897 18.357C292.625 18.25 292.351 18.1449 292.076 18.0446C291.972 18.007 291.872 17.9646 291.768 17.928L291.81 17.953C290.714 17.5664 289.593 17.2366 288.449 16.9638L288.42 16.9464C288.294 16.9165 288.164 16.8953 288.037 16.8674C287.683 16.7873 287.328 16.715 286.97 16.6466C286.726 16.6003 286.481 16.554 286.235 16.5125C285.866 16.4508 285.494 16.3978 285.121 16.3486C284.883 16.3168 284.647 16.2831 284.408 16.2561C283.997 16.2107 283.582 16.177 283.166 16.1471C282.963 16.1317 282.762 16.1114 282.557 16.0999C281.936 16.0651 281.311 16.0449 280.681 16.0449C268.526 16.0449 257.842 22.5571 251.8 32.3292C247.897 37.9765 245.595 44.8512 245.595 52.2668C245.595 71.4186 260.897 87 279.705 87C289.08 87 297.581 83.1287 303.753 76.875C306.004 78.5614 308.472 79.9614 311.105 81.0345C315.745 83.525 321.028 84.9414 326.637 84.9414C345.063 84.9414 360 69.7313 360 50.969C359.999 36.6652 351.315 24.4363 339.026 19.4263Z" fill="#E6E7E8"/>
<path d="M320.968 10.5943C312.727 10.5943 305.19 13.6431 299.369 18.6839C307.219 25.0534 312.264 34.8611 312.264 45.852C312.264 56.111 307.87 65.3422 300.901 71.7059C306.486 75.9937 313.434 78.5382 320.967 78.5382C339.393 78.5382 354.33 63.328 354.33 44.5658C354.33 25.8035 339.394 10.5943 320.968 10.5943Z" fill="white"/>
<path d="M320.968 13.4869C313.522 13.4869 306.647 15.9726 301.096 20.1707C307.954 26.5286 312.265 35.6866 312.265 45.8521C312.265 56.9316 307.138 66.8088 299.179 73.1735C305.025 78.3146 312.637 81.4318 320.969 81.4318C339.395 81.4318 354.332 66.2216 354.332 47.4594C354.332 28.6971 339.395 13.4869 320.968 13.4869Z" fill="#6DC9F7"/>
<path d="M320.968 18.4718C314.863 18.4718 309.26 20.649 304.857 24.2782C309.488 30.2089 312.265 37.7046 312.265 45.852C312.265 53.2657 309.964 60.1395 306.063 65.7868C310.263 68.8519 315.407 70.6617 320.969 70.6617C335.122 70.6617 346.596 58.9786 346.596 44.5668C346.596 30.1549 335.121 18.4718 320.968 18.4718Z" fill="#FFD7E5"/>
<path d="M320.968 22.9033C315.79 22.9033 311.046 24.7892 307.356 27.92C310.47 33.1575 312.265 39.2955 312.265 45.8521C312.265 51.6796 310.842 57.1717 308.341 62.0004C311.873 64.6577 316.24 66.2303 320.969 66.2303C332.719 66.2303 342.244 56.5315 342.244 44.5668C342.243 32.6021 332.718 22.9033 320.968 22.9033Z" fill="#FA759E"/>
<path d="M312.095 49.273C313.95 30.1839 300.257 13.1773 281.511 11.2877C262.764 9.39819 246.062 23.3412 244.207 42.4304C242.351 61.5195 256.044 78.5261 274.791 80.4156C293.537 82.3052 310.239 68.3621 312.095 49.273Z" fill="white"/>
<path d="M332.627 40.2406C330.07 33.153 321.759 36.3216 321 39.8654C319.961 36.1131 311.85 33.3198 309.372 40.2406C306.615 47.9535 320.041 54.8743 321 56C321.959 55.0828 335.385 47.8285 332.627 40.2406Z" fill="#176BC6"/>
<path d="M268.819 13.405C268.905 13.405 268.993 13.3924 269.079 13.3673C272.018 12.514 275.071 12.0821 278.154 12.0821C278.678 12.0821 279.101 11.6501 279.101 11.1179C279.101 10.5856 278.678 10.1537 278.154 10.1537C274.897 10.1537 271.668 10.6107 268.559 11.5122C268.057 11.6578 267.765 12.192 267.908 12.704C268.027 13.1282 268.407 13.405 268.819 13.405Z" fill="#3A2C60"/>
<path d="M312.094 52.1655C313.95 33.0764 300.257 16.0698 281.51 14.1802C262.764 12.2907 246.062 26.2337 244.207 45.3229C242.351 64.412 256.044 81.4186 274.791 83.3082C293.537 85.1977 310.239 71.2547 312.094 52.1655Z" fill="#6DC9F7"/>
<path d="M320.968 9.63013C312.794 9.63013 305.289 12.568 299.389 17.4459C294.538 13.6797 288.678 11.1593 282.234 10.3957C281.716 10.3301 281.246 10.7139 281.185 11.2413C281.125 11.7706 281.497 12.2489 282.016 12.3106C298.721 14.292 311.317 28.7115 311.317 45.853C311.317 64.4735 296.44 79.622 278.154 79.622C259.869 79.622 244.991 64.4726 244.991 45.852C244.991 32.0988 253.08 19.8303 265.599 14.5957C266.083 14.3932 266.314 13.8302 266.115 13.3375C265.917 12.8438 265.362 12.6105 264.88 12.812C251.647 18.3455 243.097 31.3139 243.097 45.852C243.097 65.5361 258.823 81.5494 278.154 81.5494C297.485 81.5494 313.211 65.5351 313.211 45.852C313.211 37.8695 310.624 30.4471 306.222 24.4585C310.341 21.3171 315.437 19.436 320.967 19.436C334.576 19.436 345.647 30.7094 345.647 44.5668C345.647 58.4242 334.577 69.6975 320.968 69.6975C316.144 69.6975 311.648 68.2667 307.842 65.8186C307.531 66.3788 307.204 66.9274 306.863 67.4673C310.955 70.0919 315.786 71.6259 320.969 71.6259C335.622 71.6259 347.543 59.4877 347.543 44.5677C347.543 29.6468 335.621 17.5086 320.969 17.5086C314.993 17.5086 309.489 19.5488 305.046 22.9514C303.784 21.4135 302.398 19.9827 300.899 18.6791C306.425 14.2274 313.394 11.5585 320.969 11.5585C338.844 11.5585 353.385 26.3657 353.385 44.5668C353.385 62.7669 338.844 77.575 320.969 77.575C314.446 77.575 308.371 75.5974 303.281 72.2083C302.848 72.6885 302.398 73.1542 301.94 73.6093C307.39 77.3253 313.933 79.5043 320.97 79.5043C339.888 79.5043 355.28 63.8323 355.28 44.5677C355.28 25.3031 339.886 9.63013 320.968 9.63013Z" fill="#3A2C60"/>
<path d="M289.331 73.3256C304.232 67.0407 311.308 49.6457 305.136 34.4729C298.964 19.3 281.881 12.095 266.98 18.3799C252.079 24.6648 245.004 42.0598 251.176 57.2326C257.348 72.4055 274.431 79.6106 289.331 73.3256Z" fill="#0089EF"/>
<path d="M268.102 38.9947C266.53 36.7491 263.974 35.8601 262.393 37.0075C260.812 38.1549 260.804 40.9057 262.376 43.1504C263.948 45.395 266.504 46.285 268.085 45.1376C269.666 43.9902 269.674 41.2393 268.102 38.9947Z" fill="white"/>
<path d="M294.372 36.671C292.768 35.5564 290.23 36.5003 288.704 38.7777C287.179 41.0552 287.242 43.8051 288.846 44.9197C290.45 46.0343 292.988 45.0903 294.514 42.8129C296.039 40.5355 295.977 37.7846 294.372 36.671Z" fill="white"/>
<path d="M275.087 41.4225C276.959 40.8961 277.891 38.3139 277.169 35.6566C276.448 32.9993 274.346 31.2724 272.475 31.7989C270.604 32.3253 269.671 34.9074 270.392 37.5648C271.114 40.2221 273.216 41.949 275.087 41.4225Z" fill="white"/>
<path d="M282.384 41.3454C284.265 41.8323 286.333 40.062 287 37.3903C287.668 34.7185 286.683 32.1576 284.801 31.6697C282.92 31.1818 280.853 32.953 280.185 35.6248C279.518 38.2966 280.503 40.8585 282.384 41.3454Z" fill="white"/>
<path d="M286.506 45.716C285.803 45.4711 285.124 45.3795 284.476 45.3988C283.636 45.4239 282.804 45.0912 282.26 44.4394C281.358 43.3596 280.109 42.6335 278.732 42.648C277.355 42.6624 276.119 43.4145 275.241 44.5137C274.709 45.1771 273.886 45.5271 273.045 45.5194C272.395 45.5136 271.719 45.6196 271.021 45.879C268.518 46.8094 266.816 49.1669 266.865 51.8801C266.927 55.305 269.691 58.0442 273.061 58.0086C274.254 57.996 275.364 57.6374 276.299 57.0261C277.883 55.9915 279.851 55.9712 281.456 56.972C282.404 57.5631 283.52 57.8986 284.713 57.8861C288.083 57.8504 290.791 55.0543 290.783 51.6285C290.776 48.9152 289.028 46.5944 286.506 45.716Z" fill="white"/>
</svg>
